<svg xmlns="http://www.w3.org/2000/svg">
    <symbol id="burger-icon" viewBox="0 0 24 24">
        <path d="M0 4H24V5.5H0V4Z" fill="#E04E39" />
        <path d="M0 11.5H24V13H0V11.5Z" fill="#E04E39" />
        <path d="M0 19H24V20.5H0V19Z" fill="#E04E39" />
    </symbol>
    <symbol id="search-icon" viewBox="0 0 24 24">
        <path
            d="M21 21L16.65 16.65M19 11C19 15.4183 15.4183 19 11 19C6.58172 19 3 15.4183 3 11C3 6.58172 6.58172 3 11 3C15.4183 3 19 6.58172 19 11Z"
            fill="none" stroke="#E04E39" stroke-width="1.5" stroke-linecap="round"
            stroke-linejoin="round" />
    </symbol>
    <symbol id="company-logo">
        <path
            d="M5.98 15.26C7.92 15.26 9.62 14.26 10.48 12.66L8.62 11.6C8.14 12.54 7.14 13.14 5.96 13.14C5.08 13.14 4.34 12.84 3.74 12.24C3.16 11.64 2.86 10.9 2.86 10C2.86 9.1 3.16 8.36 3.74 7.76C4.34 7.16 5.08 6.86 5.96 6.86C7.16 6.86 8.12 7.44 8.58 8.4L10.44 7.32C9.64 5.74 7.92 4.74 5.98 4.74C4.48 4.74 3.22 5.24 2.2 6.26C1.2 7.26 0.7 8.5 0.7 10C0.7 11.48 1.2 12.72 2.2 13.74C3.22 14.76 4.48 15.26 5.98 15.26ZM19.805 15.26C21.285 15.26 22.525 14.76 23.545 13.74C24.565 12.72 25.085 11.48 25.085 10C25.085 8.52 24.565 7.28 23.545 6.26C22.525 5.24 21.285 4.74 19.805 4.74C18.345 4.74 17.085 5.24 16.065 6.26C15.045 7.28 14.525 8.52 14.525 10C14.525 11.48 15.045 12.72 16.065 13.74C17.085 14.76 18.345 15.26 19.805 15.26ZM17.585 12.26C16.985 11.66 16.685 10.9 16.685 10C16.685 9.1 16.985 8.34 17.585 7.74C18.185 7.14 18.925 6.84 19.805 6.84C20.685 6.84 21.425 7.14 22.025 7.74C22.625 8.34 22.925 9.1 22.925 10C22.925 10.9 22.625 11.66 22.025 12.26C21.425 12.86 20.685 13.16 19.805 13.16C18.925 13.16 18.185 12.86 17.585 12.26ZM41.1581 4.74C39.7781 4.74 38.7581 5.26 38.0981 6.32C37.4781 5.26 36.5381 4.74 35.2581 4.74C33.9981 4.74 33.0381 5.22 32.3981 6.2V5H30.2381V15H32.3981V9.4C32.3981 7.66 33.3181 6.76 34.6181 6.76C35.8181 6.76 36.4981 7.56 36.4981 8.94V15H38.6581V9.4C38.6581 7.64 39.4981 6.76 40.8381 6.76C42.0381 6.76 42.7781 7.56 42.7781 8.94V15H44.9381V8.8C44.9381 6.32 43.4181 4.74 41.1581 4.74ZM56.1098 4.74C54.5898 4.74 53.4298 5.3 52.6098 6.44V5H50.4498V19H52.6098V13.58C53.4298 14.7 54.5898 15.26 56.1098 15.26C57.4898 15.26 58.6498 14.76 59.6298 13.74C60.6098 12.72 61.0898 11.48 61.0898 10C61.0898 8.54 60.6098 7.3 59.6298 6.28C58.6498 5.26 57.4898 4.74 56.1098 4.74ZM53.5098 12.3C52.9098 11.68 52.6098 10.92 52.6098 10C52.6098 9.08 52.9098 8.32 53.5098 7.72C54.1098 7.1 54.8698 6.8 55.7698 6.8C56.6698 6.8 57.4298 7.1 58.0298 7.72C58.6298 8.32 58.9298 9.08 58.9298 10C58.9298 10.92 58.6298 11.68 58.0298 12.3C57.4298 12.9 56.6698 13.2 55.7698 13.2C54.8698 13.2 54.1098 12.9 53.5098 12.3ZM74.1675 6.42C73.3475 5.3 72.1875 4.74 70.6675 4.74C69.2875 4.74 68.1275 5.24 67.1475 6.26C66.1675 7.28 65.6875 8.52 65.6875 10C65.6875 11.46 66.1675 12.72 67.1475 13.74C68.1275 14.76 69.2875 15.26 70.6675 15.26C72.1875 15.26 73.3475 14.7 74.1675 13.56V15H76.3275V5H74.1675V6.42ZM68.7475 12.3C68.1475 11.68 67.8475 10.92 67.8475 10C67.8475 9.08 68.1475 8.32 68.7475 7.72C69.3475 7.1 70.1075 6.8 71.0075 6.8C71.9075 6.8 72.6675 7.1 73.2675 7.72C73.8675 8.32 74.1675 9.08 74.1675 10C74.1675 10.92 73.8675 11.68 73.2675 12.3C72.6675 12.9 71.9075 13.2 71.0075 13.2C70.1075 13.2 69.3475 12.9 68.7475 12.3ZM87.3052 4.74C85.8852 4.74 84.8652 5.26 84.2052 6.28V5H82.0452V15H84.2052V9.64C84.2052 7.7 85.2252 6.76 86.7452 6.76C88.1252 6.76 88.9852 7.58 88.9852 9.08V15H91.1452V8.86C91.1452 6.3 89.6052 4.74 87.3052 4.74ZM100.656 12.26L97.6756 5H95.3156L99.5556 14.82L99.4556 15.02C98.9156 16.4 98.1556 17.06 96.7956 16.98V19C99.0956 19.14 100.716 17.9 101.676 15.32L105.516 5H103.216L100.656 12.26ZM120.426 15V0.4H118.266V15H120.426ZM130.854 15.26C132.334 15.26 133.574 14.76 134.594 13.74C135.614 12.72 136.134 11.48 136.134 10C136.134 8.52 135.614 7.28 134.594 6.26C133.574 5.24 132.334 4.74 130.854 4.74C129.394 4.74 128.134 5.24 127.114 6.26C126.094 7.28 125.574 8.52 125.574 10C125.574 11.48 126.094 12.72 127.114 13.74C128.134 14.76 129.394 15.26 130.854 15.26ZM128.634 12.26C128.034 11.66 127.734 10.9 127.734 10C127.734 9.1 128.034 8.34 128.634 7.74C129.234 7.14 129.974 6.84 130.854 6.84C131.734 6.84 132.474 7.14 133.074 7.74C133.674 8.34 133.974 9.1 133.974 10C133.974 10.9 133.674 11.66 133.074 12.26C132.474 12.86 131.734 13.16 130.854 13.16C129.974 13.16 129.234 12.86 128.634 12.26ZM149.247 6.48C148.427 5.32 147.267 4.74 145.767 4.74C144.347 4.74 143.167 5.24 142.187 6.26C141.207 7.26 140.727 8.48 140.727 9.9C140.727 11.32 141.207 12.54 142.187 13.56C143.167 14.56 144.347 15.06 145.767 15.06C147.267 15.06 148.427 14.48 149.247 13.32V14.54C149.247 16.28 148.127 17.3 146.267 17.3C144.847 17.3 143.867 16.78 143.347 15.76L141.487 16.84C142.347 18.46 143.927 19.26 146.227 19.26C147.647 19.26 148.867 18.86 149.867 18.04C150.867 17.22 151.367 16.06 151.367 14.54V5H149.247V6.48ZM143.787 12.14C143.187 11.54 142.887 10.8 142.887 9.9C142.887 9 143.187 8.26 143.787 7.66C144.407 7.06 145.167 6.76 146.067 6.76C146.967 6.76 147.727 7.06 148.327 7.66C148.947 8.26 149.247 9 149.247 9.9C149.247 10.8 148.947 11.54 148.327 12.14C147.727 12.74 146.967 13.04 146.067 13.04C145.167 13.04 144.407 12.74 143.787 12.14ZM161.805 15.26C163.285 15.26 164.525 14.76 165.545 13.74C166.565 12.72 167.085 11.48 167.085 10C167.085 8.52 166.565 7.28 165.545 6.26C164.525 5.24 163.285 4.74 161.805 4.74C160.345 4.74 159.085 5.24 158.065 6.26C157.045 7.28 156.525 8.52 156.525 10C156.525 11.48 157.045 12.72 158.065 13.74C159.085 14.76 160.345 15.26 161.805 15.26ZM159.585 12.26C158.985 11.66 158.685 10.9 158.685 10C158.685 9.1 158.985 8.34 159.585 7.74C160.185 7.14 160.925 6.84 161.805 6.84C162.685 6.84 163.425 7.14 164.025 7.74C164.625 8.34 164.925 9.1 164.925 10C164.925 10.9 164.625 11.66 164.025 12.26C163.425 12.86 162.685 13.16 161.805 13.16C160.925 13.16 160.185 12.86 159.585 12.26Z"
            fill="#E04E39" />
    </symbol>
    <symbol id="classmates">
        <g clip-path="url(#clip0_27_987)">
            <path
                d="M12.1324 9.54851C13.2516 9.54851 14.1588 8.64128 14.1588 7.52215C14.1588 6.40302 13.2516 5.49579 12.1324 5.49579C11.0133 5.49579 10.1061 6.40302 10.1061 7.52215C10.1061 8.64128 11.0133 9.54851 12.1324 9.54851Z"
                fill="#E04E39" />
            <path
                d="M12 0C5.37265 0 0 5.37265 0 12C0 18.6274 5.37265 24 12 24C18.6274 24 24 18.6274 24 12C24 5.37265 18.6274 0 12 0ZM12.1324 3.40323C14.4072 3.40323 16.2513 5.24732 16.2513 7.52214C16.2513 9.79697 14.4072 11.6411 12.1324 11.6411C9.85756 11.6411 8.01347 9.79697 8.01347 7.52214C8.01347 5.24732 9.85756 3.40323 12.1324 3.40323ZM15.7938 14.0152C14.9182 14.5773 13.718 14.79 12.934 14.8708L16.0172 17.9538C16.3859 18.3227 16.3861 18.9206 16.0172 19.2895L15.906 19.4007C15.5371 19.7696 14.9392 19.7696 14.5702 19.4007C13.9534 18.7838 13.0642 17.8946 12.1431 16.9736L9.71593 19.4007C9.34702 19.7694 8.74911 19.7696 8.38019 19.4007L8.26898 19.2895C7.90006 18.9206 7.90006 18.3227 8.26898 17.9538C8.88587 17.3369 9.77506 16.4477 10.6961 15.5266L11.35 14.8727C10.5667 14.7936 9.35359 14.5819 8.47047 14.0149C7.43673 13.3513 6.97875 12.9578 7.38417 12.1433C7.61681 11.6761 8.26071 11.2875 9.11681 11.962C10.2737 12.8736 12.1321 12.8736 12.1321 12.8736C12.1321 12.8736 13.9906 12.8736 15.1475 11.962C16.0036 11.2875 16.6475 11.6761 16.8801 12.1433C17.2855 12.9581 16.8275 13.3516 15.7938 14.0152Z"
                fill="#E04E39" />
            <path
                d="M15.7938 14.0153C14.9182 14.5774 13.718 14.7901 12.934 14.8709L16.0172 17.9539C16.3859 18.3228 16.3861 18.9207 16.0172 19.2896L15.906 19.4008C15.5371 19.7697 14.9392 19.7697 14.5702 19.4008L12.1431 16.9736L9.71593 19.4008C9.34701 19.7695 8.7491 19.7697 8.38019 19.4008L8.26898 19.2896C7.90006 18.9207 7.90006 18.3228 8.26898 17.9539L11.35 14.8728C10.5667 14.7937 9.35358 14.582 8.47047 14.015C7.43673 13.3514 6.97874 12.9579 7.38416 12.1434C7.6168 11.6762 8.2607 11.2876 9.1168 11.9621C10.2737 12.8737 12.1321 12.8737 12.1321 12.8737C12.1321 12.8737 13.9906 12.8737 15.1475 11.9621C16.0036 11.2876 16.6475 11.6762 16.8801 12.1434C17.2855 12.9582 16.8275 13.3516 15.7938 14.0153Z"
                fill="white" />
            <path fill-rule="evenodd" clip-rule="evenodd"
                d="M12.1324 3.40332C14.4072 3.40332 16.2513 5.24742 16.2513 7.52224C16.2513 9.79706 14.4072 11.6412 12.1324 11.6412C9.85756 11.6412 8.01346 9.79706 8.01346 7.52224C8.01346 5.24742 9.85756 3.40332 12.1324 3.40332ZM12.1324 9.5486C13.2516 9.5486 14.1588 8.64137 14.1588 7.52224C14.1588 6.40311 13.2516 5.49588 12.1324 5.49588C11.0133 5.49588 10.1061 6.40311 10.1061 7.52224C10.1061 8.64137 11.0133 9.5486 12.1324 9.5486Z"
                fill="white" />
            <path fill-rule="evenodd" clip-rule="evenodd"
                d="M16.2513 7.52224C16.2513 5.24742 14.4072 3.40332 12.1324 3.40332C9.85756 3.40332 8.01346 5.24742 8.01346 7.52224C8.01346 9.79706 9.85756 11.6412 12.1324 11.6412C14.4072 11.6412 16.2513 9.79706 16.2513 7.52224ZM12.934 14.8709C13.718 14.7901 14.9182 14.5774 15.7938 14.0153C16.8275 13.3516 17.2855 12.9582 16.8801 12.1434C16.6475 11.6762 16.0036 11.2876 15.1475 11.9621C13.9906 12.8737 12.1321 12.8737 12.1321 12.8737C12.1321 12.8737 10.2737 12.8737 9.1168 11.9621C8.2607 11.2876 7.6168 11.6762 7.38416 12.1434C6.97874 12.9579 7.43673 13.3514 8.47047 14.015C9.35358 14.582 10.5667 14.7937 11.35 14.8728L8.26898 17.9539C7.90006 18.3228 7.90006 18.9207 8.26898 19.2896L8.38019 19.4008C8.7491 19.7697 9.34701 19.7695 9.71593 19.4008L12.1431 16.9736L14.5702 19.4008C14.9392 19.7697 15.5371 19.7697 15.906 19.4008L16.0172 19.2896C16.3861 18.9207 16.3859 18.3228 16.0172 17.9539L12.934 14.8709ZM12.1324 9.5486C13.2516 9.5486 14.1588 8.64137 14.1588 7.52224C14.1588 6.40311 13.2516 5.49588 12.1324 5.49588C11.0133 5.49588 10.1061 6.40311 10.1061 7.52224C10.1061 8.64137 11.0133 9.5486 12.1324 9.5486Z"
                fill="white" />
        </g>
    </symbol>
    <symbol id="vkontakte">
        <g clip-path="url(#clip0_27_988)">
            <path
                d="M12 0C5.37265 0 0 5.37265 0 12C0 18.6274 5.37265 24 12 24C18.6274 24 24 18.6274 24 12C24 5.37265 18.6274 0 12 0ZM17.2038 13.5861C17.2982 13.703 17.5228 13.9305 17.8781 14.2692H17.8864L17.8946 14.2773L17.9029 14.2858L17.9197 14.3023C18.7023 15.0294 19.2323 15.6429 19.51 16.1425C19.5268 16.17 19.5448 16.2051 19.5642 16.2467C19.5835 16.2883 19.6029 16.3618 19.6224 16.4671C19.6416 16.573 19.6402 16.6669 19.6183 16.7502C19.5961 16.8331 19.5268 16.91 19.4102 16.9792C19.2936 17.0488 19.1299 17.0833 18.9189 17.0833L16.7874 17.1169C16.6543 17.1446 16.4988 17.1308 16.3211 17.0753C16.1433 17.0195 15.9992 16.9585 15.8882 16.892L15.7215 16.7918C15.5548 16.6752 15.3606 16.4976 15.1387 16.2591C14.9165 16.0204 14.7265 15.8052 14.5683 15.6137C14.4101 15.4222 14.2408 15.2616 14.0602 15.1307C13.8796 15.0002 13.7229 14.9572 13.5898 15.0017C13.5732 15.0075 13.5509 15.0173 13.5231 15.0309C13.4951 15.0448 13.4482 15.0847 13.3815 15.1516C13.3148 15.2183 13.2552 15.3003 13.2024 15.3971C13.1496 15.4945 13.1024 15.6388 13.0608 15.8303C13.0191 16.0216 13.0009 16.2369 13.0067 16.4757C13.0067 16.5586 12.9968 16.6353 12.9775 16.7047C12.9581 16.774 12.9371 16.8254 12.915 16.8585L12.8817 16.9001C12.7816 17.0059 12.6347 17.0668 12.4405 17.0833H11.4829C11.0887 17.1057 10.6835 17.0599 10.2674 16.9461C9.85123 16.8319 9.48597 16.6852 9.17253 16.5046C8.85861 16.3245 8.57292 16.1413 8.31497 15.9554C8.05678 15.7692 7.86113 15.6098 7.72802 15.4767L7.51995 15.2767C7.46447 15.2214 7.38806 15.138 7.29096 15.0268C7.19387 14.9158 6.99554 14.6635 6.69573 14.2692C6.39593 13.875 6.10172 13.4562 5.81311 13.0118C5.5245 12.5677 5.18454 11.982 4.79299 11.2549C4.40169 10.528 4.03959 9.77312 3.70644 8.99027C3.6731 8.90169 3.65631 8.82674 3.65631 8.76566C3.65631 8.70482 3.66458 8.66029 3.68138 8.6323L3.71471 8.58241C3.79794 8.4768 3.95612 8.424 4.18924 8.424L6.47064 8.40745C6.53731 8.41864 6.60107 8.43665 6.66215 8.46171C6.72323 8.48654 6.76776 8.51014 6.79551 8.53228L6.83712 8.55735C6.92594 8.61867 6.99238 8.70725 7.03691 8.82382C7.14788 9.10172 7.27563 9.38887 7.41994 9.68576C7.56424 9.98264 7.67813 10.209 7.76136 10.3642L7.89447 10.6059C8.05532 10.9388 8.21082 11.2276 8.36072 11.4717C8.51087 11.716 8.6452 11.9063 8.76468 12.0421C8.88392 12.1781 8.99903 12.2852 9.11024 12.3626C9.2212 12.4405 9.31562 12.4794 9.3935 12.4794C9.47112 12.4794 9.54607 12.4655 9.61835 12.4378C9.6293 12.4322 9.64317 12.4183 9.65996 12.3962C9.67675 12.374 9.70985 12.3129 9.75998 12.2127C9.80986 12.1129 9.84734 11.9825 9.8724 11.8214C9.89747 11.6608 9.92375 11.4359 9.95149 11.1473C9.97923 10.8585 9.97923 10.5117 9.95149 10.1065C9.9403 9.88433 9.91523 9.68186 9.87654 9.49862C9.83761 9.31562 9.79867 9.18787 9.75998 9.11559L9.70985 9.01582C9.57114 8.82722 9.33533 8.70774 9.00219 8.65761C8.92992 8.6469 8.94379 8.58022 9.0438 8.45806C9.13822 8.35245 9.24359 8.26947 9.36016 8.20814C9.65436 8.06408 10.3177 7.99741 11.3503 8.00811C11.8053 8.01395 12.1801 8.04972 12.4743 8.1164C12.5853 8.14439 12.6782 8.18162 12.7532 8.22883C12.8281 8.27579 12.8851 8.34272 12.924 8.42837C12.9627 8.51452 12.9919 8.60334 13.0114 8.69484C13.0308 8.78658 13.0406 8.91312 13.0406 9.07373C13.0406 9.23483 13.0379 9.38765 13.0323 9.53172C13.0267 9.67602 13.0199 9.87192 13.0116 10.1187C13.0033 10.3657 12.9989 10.5949 12.9989 10.8056C12.9989 10.867 12.9963 10.9833 12.9907 11.1553C12.9851 11.3276 12.9834 11.4607 12.9865 11.5549C12.9892 11.6493 12.9989 11.762 13.0155 11.8922C13.0323 12.0226 13.0642 12.1312 13.1114 12.2168C13.1583 12.303 13.2209 12.3709 13.2987 12.4208C13.343 12.4322 13.3903 12.4431 13.4404 12.4543C13.4903 12.4653 13.5623 12.4351 13.6567 12.3626C13.7509 12.2906 13.8565 12.1947 13.9731 12.0754C14.0896 11.9564 14.2339 11.7705 14.406 11.5177C14.5778 11.2656 14.7666 10.967 14.972 10.6226C15.3052 10.0454 15.602 9.42075 15.8629 8.74911C15.8851 8.69338 15.9128 8.64496 15.9461 8.60334C15.9795 8.56149 16.0099 8.53228 16.0376 8.51574L16.071 8.49067C16.0819 8.48507 16.0958 8.47826 16.1126 8.46999C16.1294 8.46196 16.1654 8.45344 16.2209 8.44492C16.2764 8.43689 16.3318 8.43543 16.3876 8.44103L18.7855 8.424C19.0019 8.3965 19.1795 8.40331 19.3182 8.44468C19.4569 8.48629 19.5431 8.53228 19.5764 8.58217L19.6265 8.6654C19.7541 9.02093 19.3379 9.83639 18.3777 11.1132C18.2443 11.2911 18.0638 11.5272 17.8365 11.8211C17.4036 12.3765 17.1539 12.74 17.0877 12.9126C16.9928 13.1396 17.0317 13.3645 17.2038 13.5861Z"
                fill="#E04E39" />
            <path
                d="M17.2038 13.5862C17.2982 13.703 17.5228 13.9306 17.8781 14.2693H17.8864L17.8946 14.2773L17.9029 14.2859L17.9197 14.3024C18.7023 15.0295 19.2323 15.643 19.51 16.1426C19.5268 16.1701 19.5448 16.2051 19.5642 16.2468C19.5835 16.2884 19.6029 16.3619 19.6224 16.4672C19.6416 16.5731 19.6402 16.667 19.6183 16.7502C19.5961 16.8332 19.5268 16.9101 19.4102 16.9792C19.2936 17.0488 19.1299 17.0834 18.9189 17.0834L16.7874 17.117C16.6543 17.1447 16.4988 17.1308 16.3211 17.0754C16.1433 17.0196 15.9992 16.9585 15.8882 16.8921L15.7215 16.7919C15.5548 16.6753 15.3606 16.4976 15.1387 16.2592C14.9165 16.0204 14.7265 15.8053 14.5683 15.6138C14.4101 15.4223 14.2408 15.2617 14.0602 15.1308C13.8796 15.0003 13.7229 14.9573 13.5898 15.0018C13.5732 15.0076 13.5509 15.0174 13.5231 15.031C13.4951 15.0449 13.4482 15.0848 13.3815 15.1517C13.3148 15.2184 13.2552 15.3004 13.2024 15.3972C13.1496 15.4946 13.1024 15.6389 13.0608 15.8304C13.0191 16.0217 13.0009 16.237 13.0067 16.4757C13.0067 16.5587 12.9968 16.6354 12.9775 16.7047C12.9581 16.7741 12.9371 16.8254 12.915 16.8585L12.8817 16.9001C12.7816 17.006 12.6347 17.0668 12.4405 17.0834H11.4829C11.0887 17.1058 10.6835 17.06 10.2674 16.9461C9.85123 16.832 9.48597 16.6853 9.17253 16.5047C8.85861 16.3246 8.57292 16.1414 8.31497 15.9555C8.05678 15.7693 7.86113 15.6099 7.72802 15.4768L7.51995 15.2768C7.46447 15.2215 7.38806 15.1381 7.29096 15.0268C7.19387 14.9159 6.99554 14.6635 6.69573 14.2693C6.39593 13.8751 6.10172 13.4563 5.81311 13.0119C5.5245 12.5678 5.18454 11.9821 4.79299 11.2549C4.40169 10.5281 4.03959 9.7732 3.70644 8.99035C3.6731 8.90177 3.65631 8.82682 3.65631 8.76573C3.65631 8.7049 3.66459 8.66037 3.68138 8.63238L3.71471 8.58249C3.79794 8.47688 3.95612 8.42407 4.18924 8.42407L6.47064 8.40753C6.53731 8.41872 6.60107 8.43673 6.66215 8.46179C6.72323 8.48661 6.76776 8.51022 6.79551 8.53236L6.83712 8.55743C6.92594 8.61875 6.99238 8.70733 7.03691 8.82389C7.14788 9.1018 7.27563 9.38895 7.41994 9.68584C7.56424 9.98272 7.67813 10.209 7.76136 10.3643L7.89447 10.6059C8.05532 10.9388 8.21082 11.2277 8.36072 11.4718C8.51087 11.7161 8.6452 11.9064 8.76468 12.0422C8.88392 12.1782 8.99903 12.2853 9.11024 12.3627C9.2212 12.4405 9.31562 12.4795 9.3935 12.4795C9.47112 12.4795 9.54607 12.4656 9.61835 12.4379C9.6293 12.4323 9.64317 12.4184 9.65996 12.3963C9.67675 12.3741 9.70985 12.313 9.75998 12.2128C9.80986 12.113 9.84734 11.9826 9.8724 11.8215C9.89747 11.6609 9.92375 11.436 9.95149 11.1474C9.97923 10.8585 9.97923 10.5118 9.95149 10.1066C9.9403 9.88441 9.91523 9.68194 9.87654 9.4987C9.83761 9.3157 9.79867 9.18794 9.75998 9.11567L9.70985 9.0159C9.57114 8.8273 9.33533 8.70782 9.00219 8.65769C8.92991 8.64698 8.94379 8.5803 9.0438 8.45814C9.13822 8.35253 9.24359 8.26955 9.36016 8.20822C9.65437 8.06416 10.3177 7.99748 11.3503 8.00819C11.8053 8.01403 12.1801 8.0498 12.4743 8.11648C12.5853 8.14447 12.6782 8.1817 12.7532 8.22891C12.8281 8.27587 12.8851 8.34279 12.924 8.42845C12.9627 8.5146 12.9919 8.60342 13.0114 8.69492C13.0308 8.78666 13.0406 8.9132 13.0406 9.07381C13.0406 9.23491 13.0379 9.38773 13.0323 9.5318C13.0267 9.6761 13.0199 9.872 13.0116 10.1188C13.0033 10.3658 12.9989 10.595 12.9989 10.8057C12.9989 10.867 12.9963 10.9834 12.9907 11.1554C12.9851 11.3277 12.9834 11.4608 12.9865 11.555C12.9892 11.6494 12.9989 11.7621 13.0155 11.8923C13.0323 12.0227 13.0642 12.1312 13.1114 12.2169C13.1583 12.303 13.2209 12.3709 13.2987 12.4208C13.343 12.4323 13.3903 12.4432 13.4404 12.4544C13.4903 12.4654 13.5623 12.4352 13.6567 12.3627C13.7509 12.2906 13.8565 12.1948 13.9731 12.0755C14.0896 11.9565 14.2339 11.7706 14.406 11.5178C14.5778 11.2657 14.7666 10.9671 14.972 10.6227C15.3052 10.0455 15.602 9.42083 15.8629 8.74919C15.8851 8.69346 15.9128 8.64503 15.9461 8.60342C15.9795 8.56157 16.0099 8.53236 16.0376 8.51582L16.071 8.49075C16.0819 8.48515 16.0958 8.47834 16.1126 8.47007C16.1294 8.46204 16.1654 8.45352 16.2209 8.445C16.2764 8.43697 16.3318 8.43551 16.3876 8.44111L18.7855 8.42407C19.0019 8.39658 19.1795 8.40339 19.3182 8.44476C19.4569 8.48637 19.5431 8.53236 19.5764 8.58225L19.6265 8.66548C19.7541 9.02101 19.3379 9.83647 18.3777 11.1133C18.2443 11.2912 18.0638 11.5273 17.8365 11.8212C17.4036 12.3765 17.1539 12.7401 17.0877 12.9126C16.9928 13.1397 17.0317 13.3645 17.2038 13.5862Z"
                fill="white" />
            <path
                d="M17.2038 13.5862C17.2982 13.703 17.5228 13.9306 17.8781 14.2693H17.8864L17.8946 14.2773L17.9029 14.2859L17.9197 14.3024C18.7023 15.0295 19.2323 15.643 19.51 16.1426C19.5268 16.1701 19.5448 16.2051 19.5642 16.2468C19.5835 16.2884 19.6029 16.3619 19.6224 16.4672C19.6416 16.5731 19.6402 16.667 19.6183 16.7502C19.5961 16.8332 19.5268 16.9101 19.4102 16.9792C19.2936 17.0488 19.1299 17.0834 18.9189 17.0834L16.7874 17.117C16.6543 17.1447 16.4988 17.1308 16.3211 17.0754C16.1433 17.0196 15.9992 16.9585 15.8882 16.8921L15.7215 16.7919C15.5548 16.6753 15.3606 16.4976 15.1387 16.2592C14.9165 16.0204 14.7265 15.8053 14.5683 15.6138C14.4101 15.4223 14.2408 15.2617 14.0602 15.1308C13.8796 15.0003 13.7229 14.9573 13.5898 15.0018C13.5732 15.0076 13.5509 15.0174 13.5231 15.031C13.4951 15.0449 13.4482 15.0848 13.3815 15.1517C13.3148 15.2184 13.2552 15.3004 13.2024 15.3972C13.1496 15.4946 13.1024 15.6389 13.0608 15.8304C13.0191 16.0217 13.0009 16.237 13.0067 16.4757C13.0067 16.5587 12.9968 16.6354 12.9775 16.7047C12.9581 16.7741 12.9371 16.8254 12.915 16.8585L12.8817 16.9001C12.7816 17.006 12.6347 17.0668 12.4405 17.0834H11.4829C11.0887 17.1058 10.6835 17.06 10.2674 16.9461C9.85123 16.832 9.48597 16.6853 9.17253 16.5047C8.85861 16.3246 8.57292 16.1414 8.31497 15.9555C8.05678 15.7693 7.86113 15.6099 7.72802 15.4768L7.51995 15.2768C7.46447 15.2215 7.38806 15.1381 7.29096 15.0268C7.19387 14.9159 6.99554 14.6635 6.69573 14.2693C6.39593 13.8751 6.10172 13.4563 5.81311 13.0119C5.5245 12.5678 5.18454 11.9821 4.79299 11.2549C4.40169 10.5281 4.03959 9.7732 3.70644 8.99035C3.6731 8.90177 3.65631 8.82682 3.65631 8.76573C3.65631 8.7049 3.66459 8.66037 3.68138 8.63238L3.71471 8.58249C3.79794 8.47688 3.95612 8.42407 4.18924 8.42407L6.47064 8.40753C6.53731 8.41872 6.60107 8.43673 6.66215 8.46179C6.72323 8.48661 6.76776 8.51022 6.79551 8.53236L6.83712 8.55743C6.92594 8.61875 6.99238 8.70733 7.03691 8.82389C7.14788 9.1018 7.27563 9.38895 7.41994 9.68584C7.56424 9.98272 7.67813 10.209 7.76136 10.3643L7.89447 10.6059C8.05532 10.9388 8.21082 11.2277 8.36072 11.4718C8.51087 11.7161 8.6452 11.9064 8.76468 12.0422C8.88392 12.1782 8.99903 12.2853 9.11024 12.3627C9.2212 12.4405 9.31562 12.4795 9.3935 12.4795C9.47112 12.4795 9.54607 12.4656 9.61835 12.4379C9.6293 12.4323 9.64317 12.4184 9.65996 12.3963C9.67675 12.3741 9.70985 12.313 9.75998 12.2128C9.80986 12.113 9.84734 11.9826 9.8724 11.8215C9.89747 11.6609 9.92375 11.436 9.95149 11.1474C9.97923 10.8585 9.97923 10.5118 9.95149 10.1066C9.9403 9.88441 9.91523 9.68194 9.87654 9.4987C9.83761 9.3157 9.79867 9.18794 9.75998 9.11567L9.70985 9.0159C9.57114 8.8273 9.33533 8.70782 9.00219 8.65769C8.92991 8.64698 8.94379 8.5803 9.0438 8.45814C9.13822 8.35253 9.24359 8.26955 9.36016 8.20822C9.65437 8.06416 10.3177 7.99748 11.3503 8.00819C11.8053 8.01403 12.1801 8.0498 12.4743 8.11648C12.5853 8.14447 12.6782 8.1817 12.7532 8.22891C12.8281 8.27587 12.8851 8.34279 12.924 8.42845C12.9627 8.5146 12.9919 8.60342 13.0114 8.69492C13.0308 8.78666 13.0406 8.9132 13.0406 9.07381C13.0406 9.23491 13.0379 9.38773 13.0323 9.5318C13.0267 9.6761 13.0199 9.872 13.0116 10.1188C13.0033 10.3658 12.9989 10.595 12.9989 10.8057C12.9989 10.867 12.9963 10.9834 12.9907 11.1554C12.9851 11.3277 12.9834 11.4608 12.9865 11.555C12.9892 11.6494 12.9989 11.7621 13.0155 11.8923C13.0323 12.0227 13.0642 12.1312 13.1114 12.2169C13.1583 12.303 13.2209 12.3709 13.2987 12.4208C13.343 12.4323 13.3903 12.4432 13.4404 12.4544C13.4903 12.4654 13.5623 12.4352 13.6567 12.3627C13.7509 12.2906 13.8565 12.1948 13.9731 12.0755C14.0896 11.9565 14.2339 11.7706 14.406 11.5178C14.5778 11.2657 14.7666 10.9671 14.972 10.6227C15.3052 10.0455 15.602 9.42083 15.8629 8.74919C15.8851 8.69346 15.9128 8.64503 15.9461 8.60342C15.9795 8.56157 16.0099 8.53236 16.0376 8.51582L16.071 8.49075C16.0819 8.48515 16.0958 8.47834 16.1126 8.47007C16.1294 8.46204 16.1654 8.45352 16.2209 8.445C16.2764 8.43697 16.3318 8.43551 16.3876 8.44111L18.7855 8.42407C19.0019 8.39658 19.1795 8.40339 19.3182 8.44476C19.4569 8.48637 19.5431 8.53236 19.5764 8.58225L19.6265 8.66548C19.7541 9.02101 19.3379 9.83647 18.3777 11.1133C18.2443 11.2912 18.0638 11.5273 17.8365 11.8212C17.4036 12.3765 17.1539 12.7401 17.0877 12.9126C16.9928 13.1397 17.0317 13.3645 17.2038 13.5862Z"
                fill="white" />
        </g>
    </symbol>
    <symbol id="telegram">
        <g clip-path="url(#clip0_27_989)">
            <path
                d="M12 0C5.37265 0 0 5.37265 0 12C0 18.6274 5.37265 24 12 24C18.6274 24 24 18.6274 24 12C24 5.37265 18.6274 0 12 0ZM18.7502 5.5773L16.0634 18.1954C16.0131 18.4431 15.7308 18.5646 15.5164 18.4302L11.3846 15.6899L9.21123 17.7124C9.01777 17.8778 8.7182 17.7973 8.634 17.5569L7.21893 13.0939L3.41905 11.5354C3.12751 11.4026 3.13165 10.9383 3.43048 10.8222L18.264 5.16751C18.5312 5.06384 18.8072 5.29648 18.7502 5.5773Z"
                fill="#E04E39" />
            <path d="M9.0905 16.2333L9.3319 13.939L16.0332 7.38859L7.94336 12.7014L9.0905 16.2333Z"
                fill="#E04E39" />
            <path fill-rule="evenodd" clip-rule="evenodd"
                d="M18.7503 5.57727L16.0635 18.1954C16.0131 18.4431 15.7308 18.5645 15.5164 18.4302L11.3846 15.6899L9.21126 17.7123C9.01779 17.8778 8.71823 17.7973 8.63403 17.5568L7.21896 13.0938L3.41908 11.5354C3.12754 11.4026 3.13168 10.9382 3.43051 10.8222L18.2641 5.16748C18.5313 5.06381 18.8072 5.29645 18.7503 5.57727ZM9.33193 13.939L9.09053 16.2333L7.94339 12.7013L16.0333 7.38856L9.33193 13.939Z"
                fill="white" />
        </g>
    </symbol>
    <symbol id="rutube">
        <circle cx="12" cy="12" r="12" fill="#E04E39" />
        <path
            d="M18 8C18.5523 8 19 7.55228 19 7C19 6.44772 18.5523 6 18 6C17.4477 6 17 6.44772 17 7C17 7.55228 17.4477 8 18 8Z"
            fill="white" />
        <path
            d="M14.7805 8H6V18H8.4439V14.7466H13.1268L15.2634 18H18L15.6439 14.7316C16.3756 14.6117 16.9024 14.3268 17.2244 13.8771C17.5463 13.4273 17.7073 12.7076 17.7073 11.7481V10.9985C17.7073 10.4288 17.6488 9.97901 17.5463 9.63417C17.4439 9.28937 17.2683 8.98948 17.0195 8.71963C16.7561 8.46477 16.4634 8.28485 16.1122 8.16492C15.7609 8.05995 15.3219 8 14.7805 8ZM14.3854 12.5427H8.4439V10.2039H14.3854C14.7219 10.2039 14.9561 10.2639 15.0732 10.3688C15.1902 10.4738 15.2634 10.6687 15.2634 10.9535V11.7931C15.2634 12.0929 15.1902 12.2879 15.0732 12.3928C14.9561 12.4978 14.7219 12.5427 14.3854 12.5427Z"
            fill="white" />
    </symbol>
    <symbol id="link-arrow">
        <path
            d="M0.81322 0.812012L13.1876 13.1864M13.1876 13.1864L13.1872 0.812271M13.1876 13.1864L0.81279 13.1866"
            stroke="white" stroke-linecap="round" stroke-linejoin="round" />
    </symbol>
</svg>